<?xml version="1.0" encoding="UTF-8"?>
<!DOCTYPE svg PUBLIC "-//W3C//DTD SVG 1.1//EN" "http://www.w3.org/Graphics/SVG/1.1/DTD/svg11.dtd">
<svg version="1.1" xmlns="http://www.w3.org/2000/svg" xmlns:xlink="http://www.w3.org/1999/xlink" x="0" y="0" width="601.434" height="202.667" viewBox="0, 0, 601.434, 202.667">
  <g id="Layer_1" transform="translate(-112.833, -207.833)">
    <g>
      <path d="M462.5,363 L511.5,363 L511.5,410 L462.5,410 L462.5,363 z" fill="#AB1500"/>
      <path d="M462.5,363 L511.5,363 L511.5,410 L462.5,410 L462.5,363 z" fill-opacity="0" stroke="#383838" stroke-width="1"/>
    </g>
    <g>
      <path d="M516.5,363 L565.5,363 L565.5,410 L516.5,410 L516.5,363 z" fill="#AB1500"/>
      <path d="M516.5,363 L565.5,363 L565.5,410 L516.5,410 L516.5,363 z" fill-opacity="0" stroke="#383838" stroke-width="1"/>
    </g>
    <g>
      <path d="M570.5,363 L619.5,363 L619.5,410 L570.5,410 L570.5,363 z" fill="#AB1500"/>
      <path d="M570.5,363 L619.5,363 L619.5,410 L570.5,410 L570.5,363 z" fill-opacity="0" stroke="#383838" stroke-width="1"/>
    </g>
    <g>
      <path d="M499.167,325.5 L511.5,325.5 L511.5,359.5 L499.167,359.5 L499.167,325.5 z" fill="#AB5500"/>
      <path d="M499.167,325.5 L511.5,325.5 L511.5,359.5 L499.167,359.5 L499.167,325.5 z" fill-opacity="0" stroke="#383838" stroke-width="1"/>
    </g>
    <g>
      <path d="M462.5,325.5 L474.833,325.5 L474.833,359.5 L462.5,359.5 L462.5,325.5 z" fill="#AB5500"/>
      <path d="M462.5,325.5 L474.833,325.5 L474.833,359.5 L462.5,359.5 L462.5,325.5 z" fill-opacity="0" stroke="#383838" stroke-width="1"/>
    </g>
    <g>
      <path d="M480.833,325.5 L493.167,325.5 L493.167,359.5 L480.833,359.5 L480.833,325.5 z" fill="#AB5500"/>
      <path d="M480.833,325.5 L493.167,325.5 L493.167,359.5 L480.833,359.5 L480.833,325.5 z" fill-opacity="0" stroke="#383838" stroke-width="1"/>
    </g>
    <g>
      <path d="M553.167,325.5 L565.5,325.5 L565.5,359.5 L553.167,359.5 L553.167,325.5 z" fill="#AB5500"/>
      <path d="M553.167,325.5 L565.5,325.5 L565.5,359.5 L553.167,359.5 L553.167,325.5 z" fill-opacity="0" stroke="#383838" stroke-width="1"/>
    </g>
    <g>
      <path d="M516.5,325.5 L528.833,325.5 L528.833,359.5 L516.5,359.5 L516.5,325.5 z" fill="#AB5500"/>
      <path d="M516.5,325.5 L528.833,325.5 L528.833,359.5 L516.5,359.5 L516.5,325.5 z" fill-opacity="0" stroke="#383838" stroke-width="1"/>
    </g>
    <g>
      <path d="M534.833,325.5 L547.167,325.5 L547.167,359.5 L534.833,359.5 L534.833,325.5 z" fill="#AB5500"/>
      <path d="M534.833,325.5 L547.167,325.5 L547.167,359.5 L534.833,359.5 L534.833,325.5 z" fill-opacity="0" stroke="#383838" stroke-width="1"/>
    </g>
    <g>
      <path d="M607.167,325.5 L619.5,325.5 L619.5,359.5 L607.167,359.5 L607.167,325.5 z" fill="#AB5500"/>
      <path d="M607.167,325.5 L619.5,325.5 L619.5,359.5 L607.167,359.5 L607.167,325.5 z" fill-opacity="0" stroke="#383838" stroke-width="1"/>
    </g>
    <g>
      <path d="M570.5,325.5 L582.833,325.5 L582.833,359.5 L570.5,359.5 L570.5,325.5 z" fill="#AB5500"/>
      <path d="M570.5,325.5 L582.833,325.5 L582.833,359.5 L570.5,359.5 L570.5,325.5 z" fill-opacity="0" stroke="#383838" stroke-width="1"/>
    </g>
    <g>
      <path d="M588.833,325.5 L601.167,325.5 L601.167,359.5 L588.833,359.5 L588.833,325.5 z" fill="#AB5500"/>
      <path d="M588.833,325.5 L601.167,325.5 L601.167,359.5 L588.833,359.5 L588.833,325.5 z" fill-opacity="0" stroke="#383838" stroke-width="1"/>
    </g>
    <g>
      <path d="M462.5,304.25 L619.5,304.25 L619.5,321.75 L462.5,321.75 L462.5,304.25 z" fill="#AB5500"/>
      <path d="M462.5,304.25 L619.5,304.25 L619.5,321.75 L462.5,321.75 L462.5,304.25 z" fill-opacity="0" stroke="#383838" stroke-width="1"/>
    </g>
    <text transform="matrix(1, 0, 0, 1, 543.574, 312.5)">
      <tspan x="-36.302" y="5" font-family="HelveticaNeue-Medium" font-size="14" fill="#383838">kubernetes</tspan>
    </text>
    <g>
      <path d="M462.5,267 L619.5,267 L619.5,300.5 L462.5,300.5 L462.5,267 z" fill="#006CAA"/>
      <path d="M462.5,267 L619.5,267 L619.5,300.5 L462.5,300.5 L462.5,267 z" fill-opacity="0" stroke="#383838" stroke-width="1"/>
    </g>
    <g>
      <path d="M299.5,267 L456.5,267 L456.5,300.5 L299.5,300.5 L299.5,267 z" fill="#006CAA"/>
      <path d="M299.5,267 L456.5,267 L456.5,300.5 L299.5,300.5 L299.5,267 z" fill-opacity="0" stroke="#383838" stroke-width="1"/>
    </g>
    <g>
      <path d="M136.167,267 L293.167,267 L293.167,300.5 L136.167,300.5 L136.167,267 z" fill="#006CAA"/>
      <path d="M136.167,267 L293.167,267 L293.167,300.5 L136.167,300.5 L136.167,267 z" fill-opacity="0" stroke="#383838" stroke-width="1"/>
    </g>
    <g>
      <path d="M299.5,304.25 L456.5,304.25 L456.5,359.5 L299.5,359.5 L299.5,304.25 z" fill="#AB5500"/>
      <path d="M299.5,304.25 L456.5,304.25 L456.5,359.5 L299.5,359.5 L299.5,304.25 z" fill-opacity="0" stroke="#383838" stroke-width="1"/>
    </g>
    <g>
      <path d="M136.167,304.25 L293.167,304.25 L293.167,359.5 L136.167,359.5 L136.167,304.25 z" fill="#AB5500"/>
      <path d="M136.167,304.25 L293.167,304.25 L293.167,359.5 L136.167,359.5 L136.167,304.25 z" fill-opacity="0" stroke="#383838" stroke-width="1"/>
    </g>
    <text transform="matrix(1, 0, 0, 1, 374.771, 330.25)">
      <tspan x="-41.104" y="5" font-family="HelveticaNeue-Medium" font-size="14" fill="#383838">IBM Bluemix</tspan>
    </text>
    <text transform="matrix(1, 0, 0, 1, 207.971, 331.375)">
      <tspan x="-15.638" y="5" font-family="HelveticaNeue-Medium" font-size="14" fill="#383838">AWS</tspan>
    </text>
    <text transform="matrix(1, 0, 0, 1, 657.462, 386)">
      <tspan x="-31.129" y="5" font-family="HelveticaNeue-Medium" font-size="14" fill="#383838">Hardware</tspan>
    </text>
    <text transform="matrix(1, 0, 0, 1, 636.833, 342)">
      <tspan x="-10.5" y="5" font-family="HelveticaNeue-Medium" font-size="14" fill="#383838">VM</tspan>
    </text>
    <text transform="matrix(1, 0, 0, 1, 670.3, 312.75)">
      <tspan x="-43.967" y="5" font-family="HelveticaNeue-Medium" font-size="14" fill="#383838">Orchestration</tspan>
    </text>
    <text transform="matrix(1, 0, 0, 1, 642.804, 283.25)">
      <tspan x="-16.471" y="5" font-family="HelveticaNeue-Medium" font-size="14" fill="#383838">FaaS</tspan>
    </text>
    <text transform="matrix(1, 0, 0, 1, 214.167, 283.25)">
      <tspan x="-26.446" y="5" font-family="HelveticaNeue-Medium" font-size="14" fill="#533F2E">Lambda</tspan>
    </text>
    <text transform="matrix(1, 0, 0, 1, 374.771, 283.25)">
      <tspan x="-37.212" y="5" font-family="HelveticaNeue-Medium" font-size="14" fill="#533F2E">OpenWhisk</tspan>
    </text>
    <text transform="matrix(1, 0, 0, 1, 540.5, 283.25)">
      <tspan x="-37.212" y="5" font-family="HelveticaNeue-Medium" font-size="14" fill="#533F2E">OpenWhisk</tspan>
    </text>
    <path d="M459.5,410 L459.5,219.667" fill-opacity="0" stroke="#383838" stroke-width="1"/>
    <g>
      <path d="M459.5,219.167 L478.846,219.167" fill-opacity="0" stroke="#383838" stroke-width="1"/>
      <path d="M478.846,222.167 L486.846,219.167 L478.846,216.167 z" fill="#383838" fill-opacity="1" stroke="#383838" stroke-width="1" stroke-opacity="1"/>
    </g>
    <g>
      <path d="M459.5,219.167 L440.154,219.167" fill-opacity="0" stroke="#383838" stroke-width="1"/>
      <path d="M440.154,216.167 L432.154,219.167 L440.154,222.167 z" fill="#383838" fill-opacity="1" stroke="#383838" stroke-width="1" stroke-opacity="1"/>
    </g>
    <g>
      <path d="M169.194,238.167 L194.527,238.167 L194.527,262.833 L169.194,262.833 L169.194,238.167 z" fill="#247F00"/>
      <path d="M169.194,238.167 L194.527,238.167 L194.527,262.833 L169.194,262.833 L169.194,238.167 z" fill-opacity="0" stroke="#383838" stroke-width="1"/>
    </g>
    <g>
      <path d="M202.111,238.167 L227.444,238.167 L227.444,262.833 L202.111,262.833 L202.111,238.167 z" fill="#247F00"/>
      <path d="M202.111,238.167 L227.444,238.167 L227.444,262.833 L202.111,262.833 L202.111,238.167 z" fill-opacity="0" stroke="#383838" stroke-width="1"/>
    </g>
    <g>
      <path d="M234.806,238.167 L260.14,238.167 L260.14,262.833 L234.806,262.833 L234.806,238.167 z" fill="#247F00"/>
      <path d="M234.806,238.167 L260.14,238.167 L260.14,262.833 L234.806,262.833 L234.806,238.167 z" fill-opacity="0" stroke="#383838" stroke-width="1"/>
    </g>
    <g>
      <path d="M329.798,238.167 L355.131,238.167 L355.131,262.833 L329.798,262.833 L329.798,238.167 z" fill="#247F00"/>
      <path d="M329.798,238.167 L355.131,238.167 L355.131,262.833 L329.798,262.833 L329.798,238.167 z" fill-opacity="0" stroke="#383838" stroke-width="1"/>
    </g>
    <g>
      <path d="M362.715,238.167 L388.048,238.167 L388.048,262.833 L362.715,262.833 L362.715,238.167 z" fill="#247F00"/>
      <path d="M362.715,238.167 L388.048,238.167 L388.048,262.833 L362.715,262.833 L362.715,238.167 z" fill-opacity="0" stroke="#383838" stroke-width="1"/>
    </g>
    <g>
      <path d="M395.41,238.167 L420.744,238.167 L420.744,262.833 L395.41,262.833 L395.41,238.167 z" fill="#247F00"/>
      <path d="M395.41,238.167 L420.744,238.167 L420.744,262.833 L395.41,262.833 L395.41,238.167 z" fill-opacity="0" stroke="#383838" stroke-width="1"/>
    </g>
    <g>
      <path d="M495.527,238.167 L520.86,238.167 L520.86,262.833 L495.527,262.833 L495.527,238.167 z" fill="#247F00"/>
      <path d="M495.527,238.167 L520.86,238.167 L520.86,262.833 L495.527,262.833 L495.527,238.167 z" fill-opacity="0" stroke="#383838" stroke-width="1"/>
    </g>
    <g>
      <path d="M528.444,238.167 L553.778,238.167 L553.778,262.833 L528.444,262.833 L528.444,238.167 z" fill="#247F00"/>
      <path d="M528.444,238.167 L553.778,238.167 L553.778,262.833 L528.444,262.833 L528.444,238.167 z" fill-opacity="0" stroke="#383838" stroke-width="1"/>
    </g>
    <g>
      <path d="M561.14,238.167 L586.473,238.167 L586.473,262.833 L561.14,262.833 L561.14,238.167 z" fill="#247F00"/>
      <path d="M561.14,238.167 L586.473,238.167 L586.473,262.833 L561.14,262.833 L561.14,238.167 z" fill-opacity="0" stroke="#383838" stroke-width="1"/>
    </g>
    <g>
      <path d="M157.333,251.5 L598.667,251.5" fill-opacity="0" stroke="#007F13" stroke-width="6" stroke-opacity="0.499"/>
      <path d="M157.333,245.5 L141.333,251.5 L157.333,257.5 z" fill="#007F13" fill-opacity="0.499" stroke="#007F13" stroke-width="6" stroke-opacity="0.499"/>
      <path d="M598.667,257.5 L614.667,251.5 L598.667,245.5 z" fill="#007F13" fill-opacity="0.499" stroke="#007F13" stroke-width="6" stroke-opacity="0.499"/>
    </g>
    <text transform="matrix(1, 0, 0, 1, 529.076, 216.833)">
      <tspan x="-35.924" y="5" font-family="HelveticaNeue-Medium" font-size="14" fill="#383838">on premise</tspan>
    </text>
    <text transform="matrix(1, 0, 0, 1, 407.577, 216.833)">
      <tspan x="-18.025" y="5" font-family="HelveticaNeue-Medium" font-size="14" fill="#383838">cloud</tspan>
    </text>
  </g>
</svg>
